<svg width="328" height="439" viewBox="0 0 328 439" fill="none" xmlns="http://www.w3.org/2000/svg">
<path fill-rule="evenodd" clip-rule="evenodd" d="M327.048 104.218L314.29 61.5974C311.739 54.5771 304.767 49.4838 297.137 49.4838H287.581L276.741 13.2276C274.197 5.59599 267.845 0.50801 260.214 0.50801H68.6084C61.6367 0.50801 54.625 5.59599 52.0747 13.2276L41.2409 49.4838H31.6855C24.0546 49.4838 17.0827 54.5771 14.5324 61.5974L1.16192 104.218C0.502706 109.353 1.16175 115.712 4.318 119.529C6.8683 123.955 13.2742 126.499 18.3482 126.499H24.7137L31.6855 194.603C29.7944 195.878 28.5292 196.536 27.2507 197.147C24.7137 199.691 24.0546 203.553 24.0546 206.711L36.8129 335.29C37.4322 340.378 41.2408 343.541 46.3348 344.193L53.9592 423.134C54.625 432.042 61.6365 439 70.5326 439H258.283C267.845 439 274.197 432.042 274.863 423.134L282.487 344.193C287.581 343.541 291.39 340.378 291.39 335.29L304.102 206.711C304.767 203.553 302.837 199.691 301.571 197.147C300.293 196.536 299.028 195.878 297.137 194.603L302.836 126.499H310.474C315.555 126.499 320.689 123.955 324.504 119.529C327.66 115.712 328.319 109.353 327.048 104.218" fill="#6A6C6C"/>
<path fill-rule="evenodd" clip-rule="evenodd" d="M293.933 97.8667H34.2686L39.9685 78.7827H288.839L293.933 97.8667Z" fill="#A5C3A9"/>
<path fill-rule="evenodd" clip-rule="evenodd" d="M267.845 193.992H61.6366L54.6251 126.499H273.584L267.845 193.992Z" fill="#A5C3A9"/>
<path fill-rule="evenodd" clip-rule="evenodd" d="M256.392 49.4841H72.4306L78.1771 30.4135H250.645L256.392 49.4841Z" fill="#A5C3A9"/>
<path d="M130.533 304.919C128.204 309.15 123.673 312.089 118.864 312.49C124.11 306.155 128.148 298.818 130.691 290.993C132.924 295.281 132.862 300.684 130.533 304.919ZM226.597 297.15C223.166 291.355 219.1 286.358 213.738 284.066C222.334 287.741 228.847 288.69 239.383 295.519C227.299 276.075 204.354 263.93 181.506 264.882C192.383 250.683 196.26 231.36 191.704 214.056C185.845 229.728 176.755 244.184 165.167 256.244C166.447 247.662 167.727 239.081 169.007 230.499C166.021 237.152 163.036 243.809 160.05 250.462C159.072 243.984 158.096 237.508 157.12 231.032C154.693 249.435 148.028 267.261 137.79 282.734C136.028 274.77 134.269 266.804 132.507 258.841C132.479 280.865 118.869 302.308 98.9667 311.688C102.443 311.979 105.917 312.27 109.393 312.56C102.765 319.262 96.0515 325.653 89.423 332.352C93.9764 342.624 103.117 350.751 113.845 354.062C111.367 352.242 112.813 348.058 115.37 346.353C117.927 344.645 121.181 344.213 123.696 342.443C126.439 340.513 127.982 337.001 127.55 333.673C127.116 330.345 124.728 327.344 121.584 326.178C127.708 327.462 134.353 325.992 139.369 322.243C144.385 318.497 147.681 312.535 148.194 306.294C149.872 312.255 149.04 318.881 145.941 324.241C151.414 322.15 155.604 317.009 156.559 311.225C158.488 318.697 154.639 327.259 147.771 330.768C144.692 332.34 140.985 333.097 138.828 335.798C137.148 337.907 136.798 340.741 136.395 343.406C135.625 348.473 132.352 352.372 126.992 353.035C134.193 360.109 144.752 363.592 154.741 362.195C150.125 361.823 145.721 359.313 143.043 355.53C148.112 357.45 154.059 356.883 158.674 354.034C153.954 354.381 149.144 351.708 146.945 347.51C147.551 341.783 150.65 338.314 155.578 335.341C160.504 332.369 166.833 331.858 172.173 333.997C168.689 332.188 165.204 330.381 161.722 328.572C170.191 327.666 179.016 331.338 184.348 337.992C176.507 338.61 168.666 339.228 160.825 339.846C166.805 345.529 166.929 355.787 162.156 362.52C157.383 369.252 148.744 372.55 140.5 372.284C132.259 372.022 124.39 368.606 117.462 364.123C123.084 374.215 131.399 382.681 141.177 388.804C150.568 387.206 159.649 383.748 167.657 378.579C181.616 369.569 192.214 355.46 196.99 339.533C196.367 358.24 188.777 376.631 176.03 390.322C173.225 393.337 170.16 396.104 166.91 398.627C169.991 399.141 173.109 399.44 176.242 399.505C178.954 399.562 181.664 399.438 184.356 399.155C197.193 390.088 206.793 376.327 210.084 360.916C215.122 337.306 205.065 311.152 185.512 297.02C200.647 301.749 213.179 314.124 218.105 329.21C217.775 312.924 210.019 296.936 197.441 286.607C212.607 294.61 224.158 309.201 228.472 325.814C232.786 342.426 229.8 360.803 220.445 375.189C223.42 364.6 222.977 353.08 219.199 342.751C218.959 359.35 213.983 375.852 205.011 389.812C220.51 383.844 231.139 368.843 235.952 352.93C238.659 343.973 237.607 336.052 236.623 327.555C235.38 316.845 232.092 306.423 226.597 297.15" fill="#FBFDE7"/>
</svg>
